<svg viewBox="0 0 16 16" xmlns="http://www.w3.org/2000/svg" style="
    width: 18px;
"><path fill-rule="evenodd" clip-rule="evenodd" d="M8.7071 1.63615L10.0706 2.99976L12 3.00012C12.5523 3.00012 13 3.44783 13 4.00012L12.9996 5.92876L14.364 7.29301C14.7545 7.68353 14.7545 8.3167 14.364 8.70722L12.9996 10.0708L13 12.0001C13 12.5524 12.5523 13.0001 12 13.0001L10.0706 12.9998L8.7071 14.3641C8.31658 14.7546 7.68341 14.7546 7.29289 14.3641L5.92864 12.9998L3.99999 13.0001C3.44771 13.0001 2.99999 12.5524 2.99999 12.0001L2.99964 10.0708L1.63603 8.70722C1.24551 8.3167 1.24551 7.68353 1.63603 7.29301L2.99964 5.92876L2.99999 4.00012C2.99999 3.44783 3.44771 3.00012 3.99999 3.00012L5.92864 2.99976L7.29289 1.63615C7.68341 1.24563 8.31658 1.24563 8.7071 1.63615ZM9.65634 3.9997L7.99998 2.34326L6.3428 3.9997L4 4.00031L3.99957 6.34293L2.343 7.99963L3.99957 9.65647L4 12.0001L6.3428 11.9997L7.9998 13.6572L9.65634 11.9997L12 12.0001L11.9996 9.65647L13.6569 8.00013L11.9996 6.34293L11.9998 4.00013L9.65634 3.9997ZM7.99999 5.00011C7.71235 5.00011 7.42981 5.04074 7.15927 5.12008C6.76437 5.23588 6.67064 5.75251 6.99968 5.99966C7.62517 6.46947 7.99999 7.20317 7.99999 8.00011C7.99999 8.7971 7.62512 9.53078 6.99927 10.0009C6.66989 10.2483 6.76422 10.7655 7.15972 10.8807C7.43068 10.9596 7.7129 11.0001 7.99999 11.0001C9.65684 11.0001 11 9.65696 11 8.00011C11 6.34326 9.65684 5.00011 7.99999 5.00011ZM8.39898 6.0401L8.48527 6.05938C9.35534 6.27625 9.99998 7.06289 9.99998 8.0001L9.99754 8.09992C9.95365 8.99277 9.32427 9.7317 8.48527 9.94082L8.39949 9.9596L8.42724 9.91965C8.79473 9.35996 8.99999 8.69693 8.99999 8.0001C8.99999 7.30333 8.79475 6.6403 8.42736 6.08067L8.39898 6.0401Z"></path></svg>